<?xml version="1.0" encoding="utf-8"?>
<!-- Generator: Adobe Illustrator 22.1.0, SVG Export Plug-In . SVG Version: 6.00 Build 0)  -->
<svg version="1.1" id="图层_1" xmlns="http://www.w3.org/2000/svg" xmlns:xlink="http://www.w3.org/1999/xlink" x="0px" y="0px"
	 viewBox="0 0 200 200" style="enable-background:new 0 0 200 200;" xml:space="preserve">
<path d="M138.3,65.6c16.9,18.7,23.2,41,18.7,65c-2.7,12.5-7.1,24.9-13.4,36.5h7.1c16,0,29.4,14.3,29.4,31.2H20.7
	c0-16.9,13.4-31.2,29.4-31.2h54.3c12.5-13.4,19.6-27.6,21.4-41.9c2.7-13.4-0.9-25.8-10.7-37.4l-33.9,35.6l7.1,7.1L67,152.9
	l-47.2-51.7L41.2,79l7.1,7.1L125.8,5l7.1,7.1l7.1-7.1c3.6-4.5,9.8-4.5,14.3,0l7.1,7.1c3.6,4.5,3.6,10.7,0,15.1l-8,8l7.1,7.1
	L138.3,65.6L138.3,65.6z"/>
</svg>
