<?xml version="1.0" standalone="no"?><!DOCTYPE svg PUBLIC "-//W3C//DTD SVG 1.1//EN" "http://www.w3.org/Graphics/SVG/1.1/DTD/svg11.dtd"><svg t="1615090084201" class="icon" viewBox="0 0 1055 1024" version="1.1" xmlns="http://www.w3.org/2000/svg" p-id="3778" xmlns:xlink="http://www.w3.org/1999/xlink" width="206.0546875" height="200"><defs><style type="text/css"></style></defs><path d="M822.128315 1005.185953a107.535931 107.535931 0 0 1-107.535931-107.535931V126.463772A107.498 107.498 0 0 1 822.128315 18.965773H929.322863a107.498 107.498 0 0 1 107.535931 107.497999v771.034524A107.535931 107.535931 0 0 1 929.322863 1005.185953zM866.356497 153.243443a55.455919 55.455919 0 0 0 18.700252 109.318714 55.417988 55.417988 0 1 0-18.700252-109.280782zM126.501704 1005.185953A107.535931 107.535931 0 0 1 18.965773 897.498296V126.463772A107.498 107.498 0 0 1 126.501704 18.965773h406.664098a107.498 107.498 0 0 1 107.535932 107.497999v771.034524a107.535931 107.535931 0 0 1-107.535932 107.687657zM201.682027 153.053786a55.493851 55.493851 0 0 0 18.965773 109.318714 55.455919 55.455919 0 1 0-18.965773-109.280783z m150.057194 0a55.455919 55.455919 0 1 0 18.700252 109.318714 55.455919 55.455919 0 1 0-18.738184-109.280783z" p-id="3779"></path></svg>