<?xml version="1.0" standalone="no"?><!DOCTYPE svg PUBLIC "-//W3C//DTD SVG 1.1//EN" "http://www.w3.org/Graphics/SVG/1.1/DTD/svg11.dtd"><svg t="1615090074118" class="icon" viewBox="0 0 1024 1024" version="1.1" xmlns="http://www.w3.org/2000/svg" p-id="3514" xmlns:xlink="http://www.w3.org/1999/xlink" width="200" height="200"><defs><style type="text/css"></style></defs><path d="M98 859.1c0 48.5 20.6 69.2 46.1 69.2h737.8c25.5 0 46.1-20.6 46.1-69.2V490.2H98v368.9z m783.9-645.6h-92.2v69.2c0 50.9-41.3 92.2-92.2 92.2-50.9 0-92.2-41.3-92.2-92.2v-69.2H420.8v70.9c0 50.9-41.3 92.2-92.2 92.2-50.9 0-92.2-41.3-92.2-92.2v-70.9h-92.2c-25.5 0-46.1 20.6-46.1 46.1V444h830V259.6c-0.1-25.5-20.7-46.1-46.2-46.1zM328.6 328.8c25.5 0 46.1-20.6 46.1-46.1V144.3c0-25.5-20.6-46.1-46.1-46.1s-46.1 20.6-46.1 46.1v138.3c-0.1 25.5 20.6 46.2 46.1 46.2z m368.8 0c25.5 0 46.1-20.6 46.1-46.1V144.3c0-25.5-20.6-46.1-46.1-46.1s-46.1 20.6-46.1 46.1v138.3c0 25.5 20.7 46.2 46.1 46.2z" p-id="3515"></path></svg>