<?xml version="1.0" encoding="utf-8"?>
<!-- Generator: Adobe Illustrator 22.1.0, SVG Export Plug-In . SVG Version: 6.00 Build 0)  -->
<svg version="1.1" id="图层_1" xmlns="http://www.w3.org/2000/svg" xmlns:xlink="http://www.w3.org/1999/xlink" x="0px" y="0px"
	 viewBox="0 0 200 200" style="enable-background:new 0 0 200 200;" xml:space="preserve">
<path d="M186.5,13.5h-173c-6,0-10.8,4.9-10.8,10.8s4.9,10.8,10.8,10.8v94c0,13.7,11.2,25,25,25h5.6l-8,17.1
	c-2.5,5.4-0.2,11.9,5.2,14.4c5.4,2.5,11.9,0.2,14.4-5.2l12.2-26.2h64.1l12.2,26.2c2.5,5.4,9,7.8,14.4,5.2c5.4-2.5,7.8-9,5.2-14.4
	l-8-17.1h5.6c13.7,0,25-11.2,25-25v-94c6,0,10.8-4.9,10.8-10.8S192.4,13.5,186.5,13.5z M143.3,102.6c0,2.9-1.1,5.6-3.2,7.7l-19,19
	c-2,2-4.8,3.2-7.7,3.2H86.6c-2.9,0-5.6-1.1-7.7-3.2l-19-19c-2-2-3.2-4.8-3.2-7.7V75.8c0-2.9,1.1-5.6,3.2-7.7l19-19
	c2-2,4.8-3.2,7.7-3.2h26.9c2.9,0,5.6,1.1,7.7,3.2l19,19c2,2,3.2,4.8,3.2,7.7V102.6z"/>
<path d="M110.5,69.1c-1-1-2.4-1.6-3.8-1.6H93.3c-1.4,0-2.8,0.6-3.8,1.6L80,78.6c-1,1-1.6,2.4-1.6,3.8v13.4c0,1.4,0.6,2.8,1.6,3.8
	l9.5,9.5c1,1,2.4,1.6,3.8,1.6h13.4c1.4,0,2.8-0.6,3.8-1.6l9.5-9.5c1-1,1.6-2.4,1.6-3.8V82.4c0-1.4-0.6-2.8-1.6-3.8L110.5,69.1z"/>
</svg>
